<?xml version="1.0" encoding="UTF-8" standalone="no"?>
<!-- Created with Inkscape (http://www.inkscape.org/) -->

<svg
   xmlns:dc="http://purl.org/dc/elements/1.1/"
   xmlns:cc="http://creativecommons.org/ns#"
   xmlns:rdf="http://www.w3.org/1999/02/22-rdf-syntax-ns#"
   xmlns:svg="http://www.w3.org/2000/svg"
   xmlns="http://www.w3.org/2000/svg"
   xmlns:sodipodi="http://sodipodi.sourceforge.net/DTD/sodipodi-0.dtd"
   xmlns:inkscape="http://www.inkscape.org/namespaces/inkscape"
   id="svg2"
   version="1.1"
   inkscape:version="0.48.4 r9939"
   width="128"
   height="128"
   xml:space="preserve"
   sodipodi:docname="logo.svg"
   style="enable-background:new"
   enable-background="new"
   inkscape:export-filename="/usr/home/michael/Workshop/bsdowl/Library/Logo/logo.png"
   inkscape:export-xdpi="90"
   inkscape:export-ydpi="90"><metadata
     id="metadata8"><rdf:RDF><cc:Work
         rdf:about=""><dc:format>image/svg+xml</dc:format><dc:type
           rdf:resource="http://purl.org/dc/dcmitype/StillImage" /><dc:title></dc:title></cc:Work></rdf:RDF></metadata><defs
     id="defs6"><clipPath
       clipPathUnits="userSpaceOnUse"
       id="clipPath18"><path
         d="m 6009.69,6061.12 -6009.69,0 0,290 6009.69,0 0,-290 z"
         id="path20"
         inkscape:connector-curvature="0" /></clipPath><linearGradient
       x1="0"
       y1="0"
       x2="1"
       y2="0"
       gradientUnits="userSpaceOnUse"
       gradientTransform="matrix(-1.27e-6,29,29,1.27e-6,300.485,606.112)"
       spreadMethod="pad"
       id="linearGradient22"><stop
         style="stop-opacity:1;stop-color:#fceb93"
         offset="0"
         id="stop24" /><stop
         style="stop-opacity:1;stop-color:#f8c708"
         offset="0.5"
         id="stop26" /><stop
         style="stop-opacity:1;stop-color:#f3a50e"
         offset="1"
         id="stop28" /></linearGradient><clipPath
       clipPathUnits="userSpaceOnUse"
       id="clipPath36"><path
         d="M 0,6505.91 0,0 l 6009.69,0 0,6505.91 -6009.69,0 z"
         id="path38"
         inkscape:connector-curvature="0" /></clipPath></defs><sodipodi:namedview
     pagecolor="#ffffff"
     bordercolor="#666666"
     borderopacity="1"
     objecttolerance="10"
     gridtolerance="10"
     guidetolerance="10"
     inkscape:pageopacity="0"
     inkscape:pageshadow="2"
     inkscape:window-width="1136"
     inkscape:window-height="1000"
     id="namedview4"
     showgrid="false"
     inkscape:zoom="2.8284271"
     inkscape:cx="16.104115"
     inkscape:cy="70.608516"
     inkscape:window-x="96"
     inkscape:window-y="0"
     inkscape:window-maximized="1"
     inkscape:current-layer="g10"
     inkscape:snap-page="true" /><g
     inkscape:groupmode="layer"
     id="layer2"
     inkscape:label="Medal"
     style="display:none"><path
       sodipodi:type="arc"
       style="fill:#000000;fill-opacity:1;stroke:#000000;stroke-width:22.29450989;stroke-linejoin:miter;stroke-miterlimit:4;stroke-opacity:1;stroke-dasharray:none;display:inline;enable-background:new"
       id="path4108"
       sodipodi:cx="50.17054"
       sodipodi:cy="53.224751"
       sodipodi:rx="71.315208"
       sodipodi:ry="71.315208"
       d="m 121.48575,53.224751 a 71.315208,71.315208 0 1 1 -142.630419,0 71.315208,71.315208 0 1 1 142.630419,0 z"
       transform="matrix(0.77611034,0,0,0.77611034,25.062126,22.69172)" /></g><g
     id="g10"
     inkscape:groupmode="layer"
     inkscape:label="Owl"
     transform="matrix(1.25,0,0,-1.25,0,128.00003)"
     style="display:inline"
     sodipodi:insensitive="true"><g
       id="g14"
       transform="matrix(0.00853318,0,0,0.00853318,25.442781,25.600018)"><g
         clip-path="url(#clipPath18)"
         id="g16" /></g><g
       id="g3030"
       transform="matrix(2.299968,0,0,2.299968,-69.329967,-52.791615)"><path
         d="m 54.412756,36.38792 4.241247,-9.027004 0.938308,1.377879 c -1.29235,2.086192 -3.526763,5.75109 -3.526763,5.75109 l 3.900943,-5.201835 0.689481,1.012649 -5.799746,6.495192 z m 4.663042,14.820257 c -1.816117,-1.750156 -3.839248,-2.018439 -5.043109,-1.758945 -0.86791,-1.338856 -1.845642,-3.263685 -1.845642,-3.263685 l -1.719521,3.441687 c -1.885235,-1.002392 -4.631383,-0.03883 -5.939776,1.434598 -1.417105,-1.751691 0.146515,-10.324123 7.205673,-14.842869 L 48.306754,25.600018 c 0,0 2.6167,3.685071 4.651693,5.250141 0.147794,2.172855 0.06997,4.509513 0.06997,4.509513 l 0.665332,-4.56788 c 1.724811,-1.273415 4.94054,-5.075709 4.94054,-5.075709 l -4.853417,10.73174 c 5.015462,4.809471 6.74437,11.872043 5.294924,14.760354 M 50.659011,36.44825 45.577331,29.377247 46.48091,28.312306 c 1.172544,2.087028 3.468908,6.097282 3.468908,6.097282 l -3.001546,-6.648209 0.929775,-1.095976 3.265307,9.423941 z m 6.944301,3.655358 C 57.390495,39.7517 55.451159,37.113667 55.42189,36.935153 c 0.02645,-0.233468 1.147969,-1.109911 1.43494,-1.356946 0.74597,0.252838 2.316332,0.877808 3.671486,0.332282 -0.557729,0.722163 -1.868511,1.314877 -2.932001,1.333138 1.25617,0.763805 2.819448,-0.292005 3.302085,-1.094039 0.05606,0.907504 -0.765938,2.089606 -2.070064,2.553555 1.621645,0.176636 2.219395,-1.174849 2.291756,-2.101381 0.640671,2.701946 -1.535972,4.253278 -3.51678,3.501846 m -12.381473,-5.50501 c 1.238676,0.775154 2.894028,0.435277 3.672851,0.317605 0.239185,0.293541 1.189099,1.353106 1.174336,1.587768 -0.05965,0.170579 -2.432382,2.427007 -2.703994,2.736335 -2.082096,0.391673 -3.952227,-1.517711 -2.847095,-4.064951 -0.09165,0.924741 0.259921,2.360193 1.887454,2.471124 -1.202581,-0.685897 -1.804341,-1.993778 -1.589817,-2.87773 0.334416,0.874481 1.688205,2.188505 3.058719,1.657485 -1.043608,-0.205223 -2.230062,-1.018691 -2.652454,-1.827636 m 10.085877,20.861833 c -0.01399,-0.159997 0.10419,-0.301221 0.264273,-0.315301 0.160168,-0.01416 0.301392,0.104446 0.315386,0.264358 0.014,0.160338 -0.10419,0.301221 -0.264528,0.315386 -0.159997,0.01399 -0.301307,-0.104275 -0.315131,-0.264443 m -0.767133,-0.231505 c 0.04676,0.535457 0.51933,0.931567 1.054616,0.884464 0.535628,-0.04685 0.931823,-0.519244 0.884635,-1.054787 -0.04702,-0.535627 -0.518988,-0.931567 -1.054957,-0.884549 -0.535542,0.04702 -0.931482,0.519244 -0.884294,1.054872 m -7.590519,0.0095 c -0.03729,-0.424269 0.0931,-0.837702 0.366841,-1.164181 0.273574,-0.326394 0.657823,-0.526583 1.082007,-0.563702 0.878918,-0.07834 1.652365,0.586144 1.727969,1.448848 0.01604,0.180989 -5.97e-4,0.357199 -0.04258,0.52445 -0.663114,0.260603 -1.326654,0.654921 -1.964082,1.15215 -0.626762,-0.173224 -1.11102,-0.724638 -1.170155,-1.397565 m 8.420627,-1.683084 c 0.878832,-0.07782 1.652109,0.586485 1.727969,1.448934 0.07637,0.868763 -0.563275,1.637603 -1.428625,1.724982 -0.540491,-0.567115 -1.12015,-1.015704 -1.728139,-1.298494 -0.009,-0.0483 -0.01604,-0.09753 -0.02031,-0.147453 -0.07671,-0.876016 0.573259,-1.651085 1.449104,-1.727969 M 43.575874,64.39723 c 0.74196,-1.143531 3.290394,-2.439465 4.304648,-3.744786 1.564132,0.735816 6.039699,1.050264 7.898994,0.347983 1.186453,1.614307 3.158471,3.146184 3.604927,3.828326 -0.454818,-2.677456 -1.711158,-5.778669 -3.396718,-7.747871 0.939589,-0.23142 1.599289,-1.118786 1.512251,-2.111877 -0.08977,-1.022019 -0.96297,-1.822687 -1.988146,-1.822687 -0.05828,0 -0.11699,0.0024 -0.176295,0.0076 -1.07868,0.0948 -1.881481,1.03499 -1.817312,2.109061 -0.482636,-0.158717 -0.980804,-0.211026 -1.489296,-0.133886 -0.489719,-0.02594 -0.996163,0.0483 -1.506703,0.202919 0.01544,-0.132947 0.01835,-0.269392 0.0061,-0.4078 -0.08994,-1.022019 -0.962969,-1.822773 -1.987889,-1.822773 -0.05845,0 -0.117161,0.0025 -0.176467,0.0077 -0.531446,0.04659 -1.012973,0.297381 -1.355922,0.706291 -0.342692,0.408825 -0.505847,0.926704 -0.45917,1.458235 0.06554,0.747592 0.550049,1.376061 1.206677,1.65996 -2.084997,1.783861 -3.816806,4.644098 -4.179637,7.463631 m 4.760149,-8.981684 c -0.01408,-0.159997 0.104105,-0.301136 0.264273,-0.31513 0.160253,-0.01425 0.301391,0.104275 0.315386,0.264272 0.01408,0.160168 -0.10419,0.301136 -0.264358,0.315387 -0.159997,0.01399 -0.301392,-0.104361 -0.315301,-0.264529 m -0.767218,-0.231334 c 0.04702,0.535286 0.519244,0.931482 1.054957,0.884293 0.535457,-0.04685 0.931567,-0.519244 0.884635,-1.054701 -0.04727,-0.535798 -0.51933,-0.931652 -1.054872,-0.884549 -0.535713,0.04693 -0.931738,0.519158 -0.88472,1.054957 m 3.493057,-4.552878 c 0.05333,-0.543991 0.897947,-2.686928 1.182357,-3.284763 0.281339,0.635978 0.982169,2.87005 0.967663,3.343044 -0.01451,0.469837 -0.525047,1.854602 -1.179029,2.468052 -0.5451,-0.642975 -1.024153,-1.982429 -0.970991,-2.526333 m 7.658102,4.035767 c 0.225362,-0.08781 0.750835,0.785906 0.750835,0.785906 0,0 1.538618,-2.99105 -2.443476,-4.99174 -3.981753,-2.000433 -3.124936,1.749985 -5.056933,3.134323 -1.737526,-1.622158 -0.442275,-4.937298 -4.648962,-3.467117 -4.206773,1.470267 -2.852557,5.125625 -2.852557,5.125625 0,0 0.619936,-0.616095 0.832412,-0.500044 -0.479394,0.424185 -1.753569,2.288002 -1.204629,3.677715 0.04292,-0.790001 1.068269,-2.16043 1.487248,-1.994886 -0.798194,0.631455 -1.934557,3.80904 -1.553466,5.078436 0.330149,-2.14891 2.556712,-4.272648 2.556712,-4.272648 -0.509346,-1.236287 -1.736844,-4.545881 0.592288,-4.956242 2.671482,-0.470263 3.805969,2.468222 3.805969,2.468222 1.383058,-0.368462 2.299009,-0.03883 2.299009,-0.03883 0.151976,-0.956996 1.327592,-4.120757 4.020408,-2.183982 1.642808,1.181249 -0.267942,4.597251 -0.489975,4.783189 0,0 1.763125,2.293975 2.089093,4.601603 0.541857,-1.209835 0.02901,-4.888147 -0.681119,-5.617563 0.436643,-0.109993 1.142934,1.479653 1.083458,2.268546 0.723529,-1.307198 -0.165629,-3.418222 -0.586315,-3.900517"
         style="fill:#191970;fill-opacity:1;fill-rule:nonzero;stroke:none"
         id="path154"
         inkscape:connector-curvature="0"
         sodipodi:nodetypes="ccccccccccccccccccccccccccccccccccccccccccccccccccccccccccccccccccccccccccccscccccscccccccccccccccccccccccccccccccccccccccc" /><path
         d="m 46.49772,50.19836 c -0.03516,-0.63777 -0.0021,-1.27938 0.07048,-1.920478 0.07228,-0.640756 0.187815,-1.278611 0.334159,-1.909725 0.295078,-1.261972 0.720883,-2.496382 1.262484,-3.679507 0.542369,-1.182528 1.202923,-2.313687 1.975602,-3.366084 0.773362,-1.051458 1.658765,-2.023814 2.642982,-2.888823 -1.012974,0.830876 -1.93524,1.77567 -2.749988,2.807502 -0.813724,1.032771 -1.520357,2.152068 -2.110853,3.331353 -0.589642,1.179798 -1.065623,2.418901 -1.411046,3.697342 -0.171432,0.639476 -0.312144,1.288595 -0.409166,1.94676 -0.09745,0.657054 -0.155389,1.32708 -0.14148,1.998726 l 0.536822,-0.01707"
         style="fill:#ffffff;fill-opacity:1;fill-rule:nonzero;stroke:none"
         id="path156"
         inkscape:connector-curvature="0" /><path
         d="m 48.977291,49.525604 c 0.01254,-1.124844 0.163155,-2.265645 0.360101,-3.389635 0.201553,-1.125356 0.467618,-2.241154 0.798279,-3.338095 0.331258,-1.09694 0.727795,-2.175619 1.20369,-3.220422 0.476066,-1.044034 1.031832,-2.055046 1.689058,-3.000863 -0.693407,0.919535 -1.290644,1.911944 -1.810229,2.942752 -0.519159,1.031576 -0.960922,2.10249 -1.337917,3.195761 -0.376655,1.093698 -0.689481,2.209923 -0.938138,3.342276 -0.123902,0.566177 -0.231847,1.136279 -0.319227,1.711244 -0.08644,0.574966 -0.156498,1.153942 -0.182439,1.743585 l 0.536822,0.0134"
         style="fill:#ffffff;fill-opacity:1;fill-rule:nonzero;stroke:none"
         id="path158"
         inkscape:connector-curvature="0" /><path
         d="m 57.889857,50.692175 c 0.100094,-0.666612 0.127144,-1.336979 0.114942,-2.001543 -0.01297,-0.665246 -0.06861,-1.326909 -0.157779,-1.983111 -0.179538,-1.312061 -0.49373,-2.601681 -0.928325,-3.846928 -0.867653,-2.489982 -2.237485,-4.802815 -4.038498,-6.708445 1.73471,1.966216 3.011701,4.308574 3.783442,6.792582 0.386382,1.242346 0.651508,2.521128 0.783175,3.810492 0.06536,0.64434 0.09753,1.291838 0.08798,1.93669 -0.01015,0.644767 -0.05862,1.286889 -0.17493,1.912713 l 0.529996,0.08755"
         style="fill:#ffffff;fill-opacity:1;fill-rule:nonzero;stroke:none"
         id="path160"
         inkscape:connector-curvature="0" /><path
         d="m 55.521046,49.748491 c 0.04915,-0.588278 0.0535,-1.17135 0.04147,-1.75263 -0.01365,-0.581366 -0.04796,-1.160598 -0.09881,-1.738124 -0.102142,-1.154624 -0.26999,-2.301654 -0.50414,-3.434434 -0.234663,-1.132523 -0.536311,-2.250797 -0.919707,-3.340313 -0.383822,-1.088578 -0.849648,-2.149082 -1.420091,-3.149426 0.531105,1.021763 0.953497,2.095322 1.292776,3.19158 0.338512,1.096855 0.594336,2.217347 0.783176,3.347652 0.188156,1.130049 0.309669,2.270593 0.366158,3.412674 0.05214,1.139777 0.05598,2.290647 -0.07518,3.40764 l 0.534348,0.05538"
         style="fill:#ffffff;fill-opacity:1;fill-rule:nonzero;stroke:none"
         id="path162"
         inkscape:connector-curvature="0" /></g></g></svg>
