<?xml version="1.0" encoding="UTF-8" standalone="no"?>
<!-- Created with Inkscape (http://www.inkscape.org/) -->

<svg
   xmlns:dc="http://purl.org/dc/elements/1.1/"
   xmlns:cc="http://creativecommons.org/ns#"
   xmlns:rdf="http://www.w3.org/1999/02/22-rdf-syntax-ns#"
   xmlns:svg="http://www.w3.org/2000/svg"
   xmlns="http://www.w3.org/2000/svg"
   xmlns:sodipodi="http://sodipodi.sourceforge.net/DTD/sodipodi-0.dtd"
   xmlns:inkscape="http://www.inkscape.org/namespaces/inkscape"
   id="svg2"
   version="1.1"
   inkscape:version="0.48.4 r9939"
   width="128"
   height="128"
   xml:space="preserve"
   sodipodi:docname="logo-wings.svg"
   style="enable-background:new"
   enable-background="new"
   inkscape:export-filename="/usr/home/michael/Workshop/bsdmakepscripts/Library/Logo/logo.png"
   inkscape:export-xdpi="90"
   inkscape:export-ydpi="90"><metadata
     id="metadata8"><rdf:RDF><cc:Work
         rdf:about=""><dc:format>image/svg+xml</dc:format><dc:type
           rdf:resource="http://purl.org/dc/dcmitype/StillImage" /><dc:title></dc:title></cc:Work></rdf:RDF></metadata><defs
     id="defs6"><clipPath
       clipPathUnits="userSpaceOnUse"
       id="clipPath18"><path
         d="m 6009.69,6061.12 -6009.69,0 0,290 6009.69,0 0,-290 z"
         id="path20"
         inkscape:connector-curvature="0" /></clipPath><linearGradient
       x1="0"
       y1="0"
       x2="1"
       y2="0"
       gradientUnits="userSpaceOnUse"
       gradientTransform="matrix(-1.27e-6,29,29,1.27e-6,300.485,606.112)"
       spreadMethod="pad"
       id="linearGradient22"><stop
         style="stop-opacity:1;stop-color:#fceb93"
         offset="0"
         id="stop24" /><stop
         style="stop-opacity:1;stop-color:#f8c708"
         offset="0.5"
         id="stop26" /><stop
         style="stop-opacity:1;stop-color:#f3a50e"
         offset="1"
         id="stop28" /></linearGradient><clipPath
       clipPathUnits="userSpaceOnUse"
       id="clipPath36"><path
         d="M 0,6505.91 0,0 l 6009.69,0 0,6505.91 -6009.69,0 z"
         id="path38"
         inkscape:connector-curvature="0" /></clipPath></defs><sodipodi:namedview
     pagecolor="#ffffff"
     bordercolor="#666666"
     borderopacity="1"
     objecttolerance="10"
     gridtolerance="10"
     guidetolerance="10"
     inkscape:pageopacity="0"
     inkscape:pageshadow="2"
     inkscape:window-width="1136"
     inkscape:window-height="1000"
     id="namedview4"
     showgrid="false"
     inkscape:zoom="3.6785506"
     inkscape:cx="63.447903"
     inkscape:cy="47.751533"
     inkscape:window-x="96"
     inkscape:window-y="0"
     inkscape:window-maximized="1"
     inkscape:current-layer="g10"
     inkscape:snap-page="true" /><g
     id="g10"
     inkscape:groupmode="layer"
     inkscape:label="Owl"
     transform="matrix(1.25,0,0,-1.25,0,128.00003)"
     style="display:inline;"
     sodipodi:insensitive="true"><g
       id="g12"
       transform="matrix(0.01706635,0,0,0.01706635,-0.31443709,2.4e-5)"><g
         id="g14"><g
           id="g16"
           clip-path="url(#clipPath18)" /></g><g
         id="g32"><g
           id="g34"
           clip-path="url(#clipPath36)"><path
             d="m 5806.11,6000.11 c 23.46,-289.55 -614.14,-787.71 -1133.79,-870.32 -17.81,-122.02 -42.23,-316.43 -74.45,-495.38 481.62,178.34 1352.96,773.12 1208.24,1365.7 M 4571.44,4552.28 c -27.58,-150.03 -22.42,-173.27 -57.85,-320.41 370.88,71.93 1085.7,597.9 1131.8,959.55 C 5488.33,4956.9 4766.48,4554.61 4571.44,4552.28 M 4054.76,3082.13 c 125.96,68.04 241.23,399.9 212.72,709.77 33.28,-3.73 331.87,1260.59 349.66,1382.61 -216.54,-440.13 -382.11,-894.64 -579.31,-1218.39 0,0 146.07,-502.52 16.93,-873.99 m 432.85,1039.46 c -39.63,-161.73 -47.56,-236.6 -94.49,-347.38 363.57,63 1116.58,535.99 1191.46,936.87 -217.89,-253.88 -821.87,-592.35 -1096.97,-589.49 m -124.96,-494.87 c -6.33,-138.29 -53.26,-328.53 -141.13,-491.14 446.05,159.51 1172.77,800.91 1252.52,1127.74 -191.13,-273.86 -894.06,-639.14 -1111.39,-636.6 M 1510.37,4632.45 c -42,176.9 -81.96,362.86 -106.45,483.69 C 880.52,5170.01 216.441,5632.29 223.945,5922.71 112.051,5323.07 1059.95,4768.17 1510.37,4632.45 m 101.49,-404.13 c -43.48,144.98 -39.62,168.46 -75.4,316.75 -194.87,-8.42 -937.784,353.52 -1107.542,579.04 65.941,-358.57 808.682,-844.38 1182.942,-895.79 m 269.99,-425.72 c -11.39,-310.98 121.98,-635.99 251.49,-696.98 -139.25,354.66 -27.23,867.57 -27.23,867.57 -214.76,312.41 -409.06,763.13 -649.58,1190.64 24.52,-120.84 392.31,-1366.82 425.32,-1361.23 m -124.47,-24.63 c -52.99,108.05 -65.04,182.39 -113.47,341.69 -274.56,-18.01 -896.265,286.69 -1127.801,528.16 96.84,-396.12 874.761,-826.92 1241.271,-869.85 m 38.56,-145.55 c -216.88,-14.51 -938.835,311.5 -1144.803,574.42 97.629,-321.91 885.663,-922.15 1339.853,-1056.83 -102.29,128.52 -183.57,303.8 -195.05,482.41 M 3394.98,1264.23 3892.01,206.359 4001.97,367.832 c -151.45,244.48 -413.3,673.968 -413.3,673.968 l 457.15,-609.601 80.8,118.672 -679.67,761.169 -51.97,-47.81 z m 546.46,1736.78 c -212.83,-205.1 -449.92,-236.54 -591,-206.13 -101.71,-156.9 -216.29,-382.47 -216.29,-382.47 l -201.51,403.33 c -220.93,-117.47 -542.75,-4.55 -696.08,168.12 -166.07,-205.28 17.17,-1209.88 844.43,-1739.43 L 2679.42,0 c 0,0 306.65,431.852 545.13,615.262 17.32,254.636 8.2,528.468 8.2,528.468 l 77.97,-535.308 C 3512.85,459.191 3889.7,13.6016 3889.7,13.6016 L 3320.93,1271.25 c 587.76,563.62 790.37,1391.28 620.51,1729.76 M 2955.08,1271.3 2359.56,442.652 l 105.89,-124.8 c 137.41,244.578 406.52,714.538 406.52,714.538 l -351.75,-779.101 108.96,-128.437 382.66,1104.388 -56.76,42.06 z m 813.8,428.37 c -24.94,-41.24 -252.21,-350.39 -255.64,-371.31 3.1,-27.36 134.53,-130.07 168.16,-159.02 87.42,29.63 271.45,102.87 430.26,38.94 -65.36,84.63 -218.97,154.09 -343.6,156.23 147.21,89.51 330.41,-34.22 386.97,-128.21 6.57,106.35 -89.76,244.88 -242.59,299.25 190.04,20.7 260.09,-137.68 268.57,-246.26 75.08,316.64 -180,498.44 -412.13,410.38 M 2317.9,1054.54 c 145.16,90.84 339.15,51.01 430.42,37.22 28.03,34.4 139.35,158.57 137.62,186.07 -6.99,19.99 -285.05,284.42 -316.88,320.67 -244,45.9 -463.16,-177.86 -333.65,-476.37 -10.74,108.37 30.46,276.59 221.19,289.59 -140.93,-80.38 -211.45,-233.65 -186.31,-337.24 39.19,102.48 197.84,256.47 358.45,194.24 -122.3,-24.05 -261.34,-119.38 -310.84,-214.18 m 1473.68,688.21 c 662.48,334.09 966.72,860.45 966.72,860.45 -193.72,-160.56 -488.07,-365.12 -805.71,-506.15 -40.97,-119.79 -93.69,-239.87 -161.01,-354.3 m 210.95,520.97 c 646.98,259.75 1011.7,879.05 1011.7,879.05 -237.67,-196.94 -515.02,-388.94 -950.6,-561.12 -12.85,-100.02 -32.46,-207.63 -61.1,-317.93 m -1733.25,-191.9 c -339.76,140.6 -585.53,290.63 -789.66,454.28 0,0 384.77,-581.81 1022.43,-835.14 -99.36,122.75 -175.1,252.02 -232.77,380.86 m -148.05,495.45 c -443.82,165.96 -726.6,354.73 -969.2,549.19 0,0 383.99,-628.33 1049.85,-871.49 -37.51,111.72 -63.1,220.69 -80.65,322.3 m 1954.02,145.94 c 728.79,221.9 1185.17,968.07 1185.17,968.07 -269.84,-223.59 -632.75,-483.41 -1178.39,-672.53 0,0 8.39,-142.47 -6.78,-295.54 m -1977.34,-11.05 c -29.63,178.99 -11.58,295.41 -11.58,295.41 -548.68,180.24 -915.72,434.12 -1189.146,653.32 0,0 468.436,-738.65 1200.726,-948.73 m 1401.95,797.17 c -1.64,-18.75 12.21,-35.3 30.97,-36.95 18.77,-1.66 35.32,12.24 36.96,30.98 1.64,18.79 -12.21,35.3 -31,36.96 -18.75,1.64 -35.31,-12.22 -36.93,-30.99 m -89.9,-27.13 c 5.48,62.75 60.86,109.17 123.59,103.65 62.77,-5.49 109.2,-60.85 103.67,-123.61 -5.51,-62.77 -60.82,-109.17 -123.63,-103.66 -62.76,5.51 -109.16,60.85 -103.63,123.62 m -889.53,1.11 c -4.37,-49.72 10.91,-98.17 42.99,-136.43 32.06,-38.25 77.09,-61.71 126.8,-66.06 103,-9.18 193.64,68.69 202.5,169.79 1.88,21.21 -0.07,41.86 -4.99,61.46 -77.71,30.54 -155.47,76.75 -230.17,135.02 -73.45,-20.3 -130.2,-84.92 -137.13,-163.78 m 986.81,-197.24 c 102.99,-9.12 193.61,68.73 202.5,169.8 8.95,101.81 -66.01,191.91 -167.42,202.15 -63.34,-66.46 -131.27,-119.03 -202.52,-152.17 -1.05,-5.66 -1.88,-11.43 -2.38,-17.28 -8.99,-102.66 67.18,-193.49 169.82,-202.5 M 2125.01,4546.63 c 86.95,-134.01 385.6,-285.88 504.46,-438.85 183.3,86.23 707.79,123.08 925.68,40.78 139.04,189.18 370.14,368.7 422.46,448.64 -53.3,-313.77 -200.53,-677.2 -398.06,-907.97 110.11,-27.12 187.42,-131.11 177.22,-247.49 -10.52,-119.77 -112.85,-213.6 -232.99,-213.6 -6.83,0 -13.71,0.28 -20.66,0.89 -126.41,11.11 -220.49,121.29 -212.97,247.16 -56.56,-18.6 -114.94,-24.73 -174.53,-15.69 -57.39,-3.04 -116.74,5.66 -176.57,23.78 1.81,-15.58 2.15,-31.57 0.71,-47.79 -10.54,-119.77 -112.85,-213.61 -232.96,-213.61 -6.85,0 -13.73,0.29 -20.68,0.9 -62.28,5.46 -118.71,34.85 -158.9,82.77 -40.16,47.91 -59.28,108.6 -53.81,170.89 7.68,87.61 64.46,161.26 141.41,194.53 -244.34,209.05 -447.29,544.24 -489.81,874.66 m 557.84,-1052.56 c -1.65,-18.75 12.2,-35.29 30.97,-36.93 18.78,-1.67 35.32,12.22 36.96,30.97 1.65,18.77 -12.21,35.29 -30.98,36.96 -18.75,1.64 -35.32,-12.23 -36.95,-31 m -89.91,-27.11 c 5.51,62.73 60.85,109.16 123.63,103.63 62.75,-5.49 109.17,-60.85 103.67,-123.6 -5.54,-62.79 -60.86,-109.18 -123.62,-103.66 -62.78,5.5 -109.19,60.84 -103.68,123.63 m 409.35,-533.55 c 6.25,-63.75 105.23,-314.88 138.56,-384.94 32.97,74.53 115.1,336.34 113.4,391.77 -1.7,55.06 -61.53,217.34 -138.17,289.23 -63.88,-75.35 -120.02,-232.32 -113.79,-296.06 m 897.45,472.95 c 26.41,-10.29 87.99,92.1 87.99,92.1 0,0 180.31,-350.52 -286.35,-584.98 -466.62,-234.43 -366.21,205.08 -592.62,367.31 -203.62,-190.1 -51.83,-578.6 -544.81,-406.31 -492.99,172.3 -334.29,600.67 -334.29,600.67 0,0 72.65,-72.2 97.55,-58.6 -56.18,49.71 -205.5,268.13 -141.17,430.99 5.03,-92.58 125.19,-253.18 174.29,-233.78 -93.54,74 -226.71,446.38 -182.05,595.14 38.69,-251.83 299.62,-500.71 299.62,-500.71 -59.69,-144.88 -203.54,-532.73 69.41,-580.82 313.07,-55.11 446.02,289.25 446.02,289.25 162.08,-43.18 269.42,-4.55 269.42,-4.55 17.81,-112.15 155.58,-482.91 471.15,-255.94 192.52,138.43 -31.4,538.75 -57.42,560.54 0,0 206.62,268.83 244.82,539.26 63.5,-141.78 3.4,-572.84 -79.82,-658.32 51.17,-12.89 133.94,173.4 126.97,265.85 84.79,-153.19 -19.41,-400.58 -68.71,-457.1"
             style="fill:#100f0d;fill-opacity:1;fill-rule:nonzero;stroke:none"
             id="path154"
             inkscape:connector-curvature="0" /><path
             d="m 2467.42,2882.67 c -4.12,-74.74 -0.25,-149.93 8.26,-225.06 8.47,-75.09 22.01,-149.84 39.16,-223.8 34.58,-147.89 84.48,-292.55 147.95,-431.2 63.56,-138.58 140.97,-271.14 231.52,-394.47 90.63,-123.22 194.39,-237.17 309.73,-338.54 -118.71,97.37 -226.79,208.09 -322.27,329.01 -95.36,121.03 -178.17,252.2 -247.37,390.4 -69.1,138.26 -124.88,283.47 -165.36,433.29 -20.09,74.94 -36.58,151.01 -47.95,228.14 -11.42,77 -18.21,155.52 -16.58,234.23 l 62.91,-2"
             style="fill:#ffffff;fill-opacity:1;fill-rule:nonzero;stroke:none"
             id="path156"
             inkscape:connector-curvature="0" /><path
             d="m 2758,2803.83 c 1.47,-131.82 19.12,-265.51 42.2,-397.23 23.62,-131.88 54.8,-262.64 93.55,-391.19 38.82,-128.55 85.29,-254.96 141.06,-377.4 55.79,-122.35 120.92,-240.83 197.94,-351.67 -81.26,107.76 -151.25,224.06 -212.14,344.86 -60.84,120.89 -112.61,246.39 -156.79,374.51 -44.14,128.17 -80.8,258.98 -109.94,391.68 -14.52,66.35 -27.17,133.16 -37.41,200.54 -10.13,67.38 -18.34,135.23 -21.38,204.33 l 62.91,1.57"
             style="fill:#ffffff;fill-opacity:1;fill-rule:nonzero;stroke:none"
             id="path158"
             inkscape:connector-curvature="0" /><path
             d="m 3802.46,2940.54 c 11.73,-78.12 14.9,-156.68 13.47,-234.56 -1.52,-77.96 -8.04,-155.5 -18.49,-232.4 -21.04,-153.76 -57.86,-304.89 -108.79,-450.82 -101.68,-291.8 -262.21,-562.84 -473.27,-786.16 203.29,230.42 352.94,504.92 443.38,796.02 45.28,145.59 76.35,295.45 91.78,446.55 7.66,75.51 11.43,151.39 10.31,226.96 -1.19,75.56 -6.87,150.81 -20.5,224.15 l 62.11,10.26"
             style="fill:#ffffff;fill-opacity:1;fill-rule:nonzero;stroke:none"
             id="path160"
             inkscape:connector-curvature="0" /><path
             d="m 3524.86,2829.95 c 5.76,-68.94 6.27,-137.27 4.86,-205.39 -1.6,-68.13 -5.62,-136.01 -11.58,-203.69 -11.97,-135.31 -31.64,-269.73 -59.08,-402.48 -27.5,-132.72 -62.85,-263.77 -107.78,-391.45 -44.98,-127.57 -99.57,-251.85 -166.42,-369.08 62.24,119.74 111.74,245.55 151.5,374.02 39.67,128.54 69.65,259.85 91.78,392.31 22.05,132.43 36.29,266.09 42.91,399.93 6.11,133.57 6.56,268.44 -8.81,399.34 l 62.62,6.49"
             style="fill:#ffffff;fill-opacity:1;fill-rule:nonzero;stroke:none"
             id="path162"
             inkscape:connector-curvature="0" /></g></g></g></g></svg>